<svg width="128" height="32" viewBox="0 0 128 32" fill="none" xmlns="http://www.w3.org/2000/svg">
<path d="M31 7.35898L27.4779 7.29676L25.692 4.40939L24.8083 7.76347L21 8.41685L24.4599 9.87921L24.771 10.0099L24.0367 13.1835L26.1898 11.2731L29.687 13.1835L28.2744 9.3316L31 7.35898Z" fill="#1FA0D1"/>
<path d="M4.19731 5.03806L6.60556 13.3426L1 19.6955L9.67831 19.3633L13.8306 28L15.2008 18.8651V18.0346L23.2977 17.4948L17.1939 13.7162L19.1869 4L10.8824 10.1453L4.19731 5.03806Z" fill="#1FA0D1"/>
<path d="M8.06548 29.625L6.79762 27.4881L7.88094 25.3452L5.52976 26.0536L3.74404 24L4.14284 26.625L4.17857 26.8571L2 27.5952L3.94046 28.1905L4.08927 31L5.87499 28.7321L8.06548 29.625Z" fill="#1FA0D1"/>
<path d="M21.7911 22.3185L22.387 24.3733L21 25.9452L23.1473 25.863L24.1747 28L24.4213 25.6884V25.4829L26.4247 25.339L24.9144 24.4144L25.4075 22L23.3528 23.5308L21.7911 22.3185Z" fill="#1FA0D1"/>
<path d="M40.8984 10.2422C40.638 10.1641 40.4818 9.99479 40.4297 9.73438C40.3646 9.55208 40.3841 9.35677 40.4883 9.14844C40.5924 8.92708 40.7552 8.80339 40.9766 8.77734C42.2396 8.58203 43.5026 8.47786 44.7656 8.46484C46.0417 8.4388 47.3177 8.41927 48.5938 8.40625C48.8411 8.40625 49.0299 8.48438 49.1602 8.64062C49.2904 8.79688 49.3555 8.97266 49.3555 9.16797C49.3555 9.36328 49.2904 9.54557 49.1602 9.71484C49.0299 9.87109 48.8411 9.94922 48.5938 9.94922C47.5781 9.97526 46.556 9.98828 45.5273 9.98828C44.4987 9.98828 43.4701 10.0404 42.4414 10.1445C42.4674 10.6654 42.5 11.1862 42.5391 11.707C42.5781 12.2148 42.6172 12.7292 42.6562 13.25C43.6458 13.1979 44.6289 13.1328 45.6055 13.0547C46.5951 12.9766 47.5846 12.9635 48.5742 13.0156C48.8216 13.0286 49.0104 13.1198 49.1406 13.2891C49.2708 13.4583 49.3359 13.6406 49.3359 13.8359C49.3359 14.0312 49.2708 14.207 49.1406 14.3633C49.0104 14.5195 48.8216 14.5911 48.5742 14.5781C47.5977 14.526 46.6276 14.5391 45.6641 14.6172C44.7135 14.6953 43.75 14.7604 42.7734 14.8125C42.8516 15.75 42.9232 16.6875 42.9883 17.625C43.0664 18.5495 43.1185 19.4805 43.1445 20.418C43.6003 20.3138 44.0625 20.2161 44.5312 20.125C45 20.0208 45.4688 19.9427 45.9375 19.8906C46.4062 19.8255 46.875 19.793 47.3438 19.793C47.8125 19.793 48.2812 19.832 48.75 19.9102C48.9583 19.9492 49.1146 20.0729 49.2188 20.2812C49.3229 20.4896 49.349 20.6849 49.2969 20.8672C49.2318 21.0885 49.1081 21.2448 48.9258 21.3359C48.7435 21.4271 48.5417 21.4531 48.3203 21.4141C47.9036 21.3359 47.4805 21.3099 47.0508 21.3359C46.6211 21.362 46.1979 21.4076 45.7812 21.4727C45.2995 21.5508 44.8177 21.6419 44.3359 21.7461C43.8672 21.8503 43.3984 21.9609 42.9297 22.0781C42.7083 22.1302 42.5 22.0911 42.3047 21.9609C42.1224 21.9349 41.9596 21.8633 41.8164 21.7461C41.6732 21.6289 41.6016 21.4531 41.6016 21.2188C41.5755 20.112 41.5234 19.0182 41.4453 17.9375C41.3802 16.8568 41.3021 15.7695 41.2109 14.6758C41.0677 14.5326 40.9831 14.3568 40.957 14.1484C40.944 13.9271 41.0026 13.7383 41.1328 13.582C41.0286 12.4753 40.9505 11.362 40.8984 10.2422ZM53.125 14.8711C53.5938 14.5846 54.0951 14.3372 54.6289 14.1289C55.1758 13.9206 55.7292 13.8229 56.2891 13.8359C56.237 12.7292 56.1914 11.6289 56.1523 10.5352C56.1263 9.44141 56.1068 8.34115 56.0938 7.23438C56.0938 6.98698 56.1719 6.80469 56.3281 6.6875C56.4844 6.55729 56.6602 6.49219 56.8555 6.49219C57.0508 6.49219 57.2266 6.55729 57.3828 6.6875C57.5521 6.80469 57.6367 6.98698 57.6367 7.23438C57.6497 8.52344 57.6823 9.81901 57.7344 11.1211C57.7865 12.4102 57.8385 13.6992 57.8906 14.9883C57.9427 16.2773 57.9818 17.5729 58.0078 18.875C58.0339 20.1641 58.0273 21.4531 57.9883 22.7422C57.9753 22.9896 57.8841 23.1784 57.7148 23.3086C57.5456 23.4388 57.3633 23.5039 57.168 23.5039C56.9727 23.5039 56.7969 23.4388 56.6406 23.3086C56.4844 23.1914 56.4128 23.0026 56.4258 22.7422C56.4258 22.651 56.4258 22.5599 56.4258 22.4688C56.4258 22.3776 56.4323 22.2865 56.4453 22.1953C56.3151 22.1823 56.1849 22.1693 56.0547 22.1562C55.9375 22.1562 55.8203 22.1562 55.7031 22.1562C55.5469 22.1562 55.3906 22.1562 55.2344 22.1562C55.0781 22.1562 54.9284 22.1497 54.7852 22.1367C54.4466 22.1107 54.1081 22.0781 53.7695 22.0391C53.431 22 53.099 21.9219 52.7734 21.8047C52.4479 21.6745 52.1419 21.5182 51.8555 21.3359C51.569 21.1406 51.3346 20.8867 51.1523 20.5742C50.944 20.2487 50.7682 19.8971 50.625 19.5195C50.4948 19.1419 50.4427 18.7513 50.4688 18.3477C50.4948 17.944 50.5859 17.5729 50.7422 17.2344C50.8984 16.8958 51.0938 16.5833 51.3281 16.2969C51.5755 16.0104 51.849 15.75 52.1484 15.5156C52.4609 15.2812 52.7865 15.0664 53.125 14.8711ZM56.4648 20.6523C56.4648 18.9076 56.4258 17.1562 56.3477 15.3984C55.918 15.3724 55.4883 15.4505 55.0586 15.6328C54.6419 15.8021 54.2578 15.9974 53.9062 16.2188C53.7109 16.3359 53.4961 16.4727 53.2617 16.6289C53.0404 16.7721 52.832 16.9414 52.6367 17.1367C52.4544 17.319 52.3047 17.5208 52.1875 17.7422C52.0703 17.9635 52.0117 18.2044 52.0117 18.4648C52.0247 18.6992 52.0768 18.9531 52.168 19.2266C52.2591 19.487 52.3828 19.7018 52.5391 19.8711C52.6953 20.0404 52.8711 20.1706 53.0664 20.2617C53.2617 20.3398 53.4701 20.4049 53.6914 20.457C53.9518 20.5091 54.1992 20.5417 54.4336 20.5547C54.681 20.5677 54.9349 20.5807 55.1953 20.5938C55.4036 20.5938 55.612 20.6068 55.8203 20.6328C56.0286 20.6458 56.2435 20.6523 56.4648 20.6523ZM68.3594 15.1055C68.3724 16.2253 68.4505 17.3451 68.5938 18.4648C68.737 19.5846 68.9258 20.6914 69.1602 21.7852C69.2122 22.0326 69.1667 22.2344 69.0234 22.3906C68.8932 22.5599 68.737 22.6706 68.5547 22.7227C68.3724 22.7747 68.1901 22.7617 68.0078 22.6836C67.8255 22.6055 67.7083 22.4427 67.6562 22.1953C67.5 21.4531 67.3633 20.724 67.2461 20.0078C67.194 20.0729 67.1484 20.138 67.1094 20.2031C67.0703 20.2552 67.0247 20.3138 66.9727 20.3789C66.7122 20.6914 66.4128 20.9648 66.0742 21.1992C65.7357 21.4206 65.3711 21.5964 64.9805 21.7266C64.6029 21.8438 64.2122 21.9089 63.8086 21.9219C63.4049 21.9349 63.0078 21.8893 62.6172 21.7852C61.9271 21.5898 61.3997 21.2513 61.0352 20.7695C60.6706 20.2878 60.4102 19.7409 60.2539 19.1289C60.0977 18.5039 60.0065 17.8594 59.9805 17.1953C59.9544 16.5182 59.9349 15.8932 59.9219 15.3203C59.9219 15.0729 60 14.8906 60.1562 14.7734C60.3125 14.6432 60.4883 14.5781 60.6836 14.5781C60.8789 14.5781 61.0547 14.6432 61.2109 14.7734C61.3802 14.8906 61.4714 15.0729 61.4844 15.3203C61.4974 15.8411 61.5039 16.3685 61.5039 16.9023C61.5169 17.4362 61.5755 17.9375 61.6797 18.4062C61.7318 18.6667 61.7904 18.8945 61.8555 19.0898C61.9206 19.2721 62.0247 19.4674 62.168 19.6758C62.2331 19.7669 62.2656 19.819 62.2656 19.832C62.2786 19.8451 62.2982 19.8581 62.3242 19.8711C62.5195 20.0273 62.6497 20.125 62.7148 20.1641C62.7799 20.1901 62.8581 20.2161 62.9492 20.2422C63.4961 20.3984 64.0495 20.3854 64.6094 20.2031C65.1693 20.0078 65.6185 19.6628 65.957 19.168C66.1523 18.8555 66.2956 18.5299 66.3867 18.1914C66.4909 17.8529 66.5625 17.5143 66.6016 17.1758C66.6406 16.8242 66.6667 16.4727 66.6797 16.1211C66.7057 15.7565 66.7448 15.3984 66.7969 15.0469C66.7969 14.6562 66.8945 14.4023 67.0898 14.2852C67.2982 14.1549 67.513 14.1094 67.7344 14.1484C67.8646 14.1875 67.9688 14.2331 68.0469 14.2852L68.2031 14.4219C68.3464 14.6562 68.3984 14.8841 68.3594 15.1055ZM76.25 20.4766C76.3021 20.6589 76.276 20.8542 76.1719 21.0625C76.0677 21.2708 75.9115 21.3945 75.7031 21.4336C75 21.5508 74.3034 21.5443 73.6133 21.4141C72.9232 21.2708 72.2852 20.9714 71.6992 20.5156C71.1263 20.0599 70.7161 19.4805 70.4688 18.7773C70.2344 18.0612 70.1953 17.3451 70.3516 16.6289C70.4948 15.9909 70.7943 15.4375 71.25 14.9688C71.7057 14.5 72.2266 14.1354 72.8125 13.875C73.3333 13.6276 73.8802 13.4323 74.4531 13.2891C75.026 13.1458 75.599 13.1003 76.1719 13.1523C76.3932 13.1784 76.5755 13.263 76.7188 13.4062C76.875 13.5365 76.9531 13.7122 76.9531 13.9336C76.9531 14.1289 76.875 14.3112 76.7188 14.4805C76.5755 14.6497 76.3932 14.7279 76.1719 14.7148C75.7552 14.6758 75.3451 14.6953 74.9414 14.7734C74.5378 14.8516 74.1471 14.9753 73.7695 15.1445C73.5482 15.2487 73.3268 15.3594 73.1055 15.4766C72.8971 15.5938 72.7148 15.724 72.5586 15.8672C72.3893 16.0234 72.2461 16.1797 72.1289 16.3359C72.0247 16.4922 71.9466 16.6745 71.8945 16.8828C71.8424 17.0911 71.8229 17.3125 71.8359 17.5469C71.849 17.7812 71.888 18.0156 71.9531 18.25C72.0312 18.4714 72.1354 18.6797 72.2656 18.875C72.3958 19.0573 72.5521 19.2135 72.7344 19.3438C73.112 19.6172 73.5221 19.806 73.9648 19.9102C74.4206 20.0013 74.8633 20.0078 75.293 19.9297C75.5013 19.8906 75.6966 19.9167 75.8789 20.0078C76.0612 20.099 76.1849 20.2552 76.25 20.4766ZM79.4336 21.4727C78.9909 21.2773 78.6393 21.0104 78.3789 20.6719C78.1315 20.3203 77.9557 19.9362 77.8516 19.5195C77.7604 19.1029 77.7344 18.6732 77.7734 18.2305C77.8125 17.7747 77.9036 17.3385 78.0469 16.9219C78.1641 16.5964 78.2943 16.2578 78.4375 15.9062C78.5938 15.5547 78.776 15.2292 78.9844 14.9297C79.1927 14.6302 79.4401 14.3763 79.7266 14.168C80.013 13.9466 80.3516 13.8034 80.7422 13.7383C81.1458 13.6732 81.5495 13.6536 81.9531 13.6797C82.3698 13.6927 82.7799 13.7318 83.1836 13.7969C83.3659 13.8229 83.5417 13.8685 83.7109 13.9336C83.8802 13.9857 84.0495 14.0443 84.2188 14.1094C84.2318 13.9141 84.3164 13.7513 84.4727 13.6211C84.6419 13.4909 84.8177 13.4258 85 13.4258C85.2214 13.4258 85.3971 13.5039 85.5273 13.6602C85.6706 13.8034 85.7552 13.9792 85.7812 14.1875C85.8464 14.7865 85.8724 15.3854 85.8594 15.9844C85.8594 16.5833 85.8398 17.1823 85.8008 17.7812C85.7747 18.3802 85.7487 18.9792 85.7227 19.5781C85.7096 20.1771 85.7161 20.776 85.7422 21.375C85.7552 21.6224 85.6771 21.8112 85.5078 21.9414C85.3516 22.0586 85.1758 22.1172 84.9805 22.1172C84.7852 22.1172 84.6029 22.0586 84.4336 21.9414C84.2773 21.8112 84.1927 21.6224 84.1797 21.375C83.4375 21.6875 82.6497 21.8698 81.8164 21.9219C80.9831 21.9609 80.1888 21.8112 79.4336 21.4727ZM79.5703 17.2344C79.4922 17.4688 79.4206 17.7357 79.3555 18.0352C79.2904 18.3346 79.2708 18.6211 79.2969 18.8945C79.3229 19.168 79.4076 19.4219 79.5508 19.6562C79.694 19.8776 79.9284 20.0339 80.2539 20.125C80.918 20.3333 81.582 20.3919 82.2461 20.3008C82.9232 20.2096 83.5547 19.9753 84.1406 19.5977C84.1927 18.9596 84.2318 18.3411 84.2578 17.7422C84.2969 17.1432 84.3099 16.5378 84.2969 15.9258C84.0755 15.7826 83.8477 15.6589 83.6133 15.5547C83.3919 15.4375 83.1445 15.3594 82.8711 15.3203C82.5977 15.2812 82.3047 15.2552 81.9922 15.2422C81.6927 15.2161 81.3997 15.2161 81.1133 15.2422C81.0872 15.2422 81.0156 15.2617 80.8984 15.3008C80.7943 15.3268 80.7357 15.3464 80.7227 15.3594C80.5924 15.4245 80.4753 15.5286 80.3711 15.6719C80.2018 15.9062 80.0521 16.1602 79.9219 16.4336C79.7917 16.694 79.6745 16.9609 79.5703 17.2344ZM94.6289 22.625C94.4336 22.625 94.2448 22.5469 94.0625 22.3906C93.8932 22.2344 93.8216 22.0521 93.8477 21.8438C94.056 19.7604 94.1602 17.6771 94.1602 15.5938C94.1602 13.5104 94.1536 11.4206 94.1406 9.32422C94.0365 9.16797 93.9779 8.99219 93.9648 8.79688C93.9648 8.58854 94.0365 8.41276 94.1797 8.26953C94.2578 8.03516 94.4141 7.88542 94.6484 7.82031C94.8828 7.75521 95.1042 7.77474 95.3125 7.87891C95.9245 7.7487 96.543 7.67708 97.168 7.66406C97.793 7.63802 98.418 7.63802 99.043 7.66406C99.668 7.67708 100.293 7.69661 100.918 7.72266C101.556 7.73568 102.188 7.72266 102.812 7.68359C103.06 7.67057 103.242 7.74219 103.359 7.89844C103.49 8.04167 103.555 8.21094 103.555 8.40625C103.555 8.60156 103.49 8.79036 103.359 8.97266C103.242 9.14193 103.06 9.23307 102.812 9.24609C102.227 9.28516 101.634 9.29167 101.035 9.26562C100.436 9.23958 99.8372 9.22005 99.2383 9.20703C98.6393 9.18099 98.0469 9.17448 97.4609 9.1875C96.875 9.20052 96.2891 9.26562 95.7031 9.38281C95.7031 10.2812 95.7031 11.1732 95.7031 12.0586C95.7161 12.944 95.7227 13.8359 95.7227 14.7344C96.1263 14.7344 96.5365 14.7279 96.9531 14.7148C97.3698 14.7018 97.7799 14.6953 98.1836 14.6953C98.6003 14.6953 99.0104 14.7148 99.4141 14.7539C99.8307 14.7799 100.241 14.8385 100.645 14.9297C100.892 14.9948 101.055 15.1185 101.133 15.3008C101.211 15.4831 101.224 15.6719 101.172 15.8672C101.12 16.0495 101.009 16.2057 100.84 16.3359C100.684 16.4661 100.482 16.4987 100.234 16.4336C99.4922 16.2643 98.737 16.1992 97.9688 16.2383C97.2135 16.2773 96.4583 16.2969 95.7031 16.2969C95.6771 17.2214 95.6445 18.1458 95.6055 19.0703C95.5664 19.9818 95.5013 20.9062 95.4102 21.8438C95.3841 22.0521 95.2995 22.2344 95.1562 22.3906C95.026 22.5469 94.8503 22.625 94.6289 22.625ZM104.453 21.4727C104.01 21.2773 103.659 21.0104 103.398 20.6719C103.151 20.3203 102.975 19.9362 102.871 19.5195C102.78 19.1029 102.754 18.6732 102.793 18.2305C102.832 17.7747 102.923 17.3385 103.066 16.9219C103.184 16.5964 103.314 16.2578 103.457 15.9062C103.613 15.5547 103.796 15.2292 104.004 14.9297C104.212 14.6302 104.46 14.3763 104.746 14.168C105.033 13.9466 105.371 13.8034 105.762 13.7383C106.165 13.6732 106.569 13.6536 106.973 13.6797C107.389 13.6927 107.799 13.7318 108.203 13.7969C108.385 13.8229 108.561 13.8685 108.73 13.9336C108.9 13.9857 109.069 14.0443 109.238 14.1094C109.251 13.9141 109.336 13.7513 109.492 13.6211C109.661 13.4909 109.837 13.4258 110.02 13.4258C110.241 13.4258 110.417 13.5039 110.547 13.6602C110.69 13.8034 110.775 13.9792 110.801 14.1875C110.866 14.7865 110.892 15.3854 110.879 15.9844C110.879 16.5833 110.859 17.1823 110.82 17.7812C110.794 18.3802 110.768 18.9792 110.742 19.5781C110.729 20.1771 110.736 20.776 110.762 21.375C110.775 21.6224 110.697 21.8112 110.527 21.9414C110.371 22.0586 110.195 22.1172 110 22.1172C109.805 22.1172 109.622 22.0586 109.453 21.9414C109.297 21.8112 109.212 21.6224 109.199 21.375C108.457 21.6875 107.669 21.8698 106.836 21.9219C106.003 21.9609 105.208 21.8112 104.453 21.4727ZM104.59 17.2344C104.512 17.4688 104.44 17.7357 104.375 18.0352C104.31 18.3346 104.29 18.6211 104.316 18.8945C104.342 19.168 104.427 19.4219 104.57 19.6562C104.714 19.8776 104.948 20.0339 105.273 20.125C105.938 20.3333 106.602 20.3919 107.266 20.3008C107.943 20.2096 108.574 19.9753 109.16 19.5977C109.212 18.9596 109.251 18.3411 109.277 17.7422C109.316 17.1432 109.329 16.5378 109.316 15.9258C109.095 15.7826 108.867 15.6589 108.633 15.5547C108.411 15.4375 108.164 15.3594 107.891 15.3203C107.617 15.2812 107.324 15.2552 107.012 15.2422C106.712 15.2161 106.419 15.2161 106.133 15.2422C106.107 15.2422 106.035 15.2617 105.918 15.3008C105.814 15.3268 105.755 15.3464 105.742 15.3594C105.612 15.4245 105.495 15.5286 105.391 15.6719C105.221 15.9062 105.072 16.1602 104.941 16.4336C104.811 16.694 104.694 16.9609 104.59 17.2344ZM109.121 9.12891C109.29 8.9987 109.473 8.92708 109.668 8.91406C109.863 8.88802 110.046 8.95964 110.215 9.12891C110.358 9.27214 110.436 9.46094 110.449 9.69531C110.462 9.91667 110.384 10.099 110.215 10.2422C109.277 10.9583 108.301 11.5768 107.285 12.0977C107.064 12.2148 106.855 12.2344 106.66 12.1562C106.465 12.0651 106.315 11.9349 106.211 11.7656C106.12 11.5964 106.087 11.4141 106.113 11.2188C106.139 11.0234 106.263 10.8672 106.484 10.75C106.953 10.5156 107.402 10.2682 107.832 10.0078C108.275 9.7474 108.704 9.45443 109.121 9.12891ZM118.359 20.4766C118.411 20.6589 118.385 20.8542 118.281 21.0625C118.177 21.2708 118.021 21.3945 117.812 21.4336C117.109 21.5508 116.413 21.5443 115.723 21.4141C115.033 21.2708 114.395 20.9714 113.809 20.5156C113.236 20.0599 112.826 19.4805 112.578 18.7773C112.344 18.0612 112.305 17.3451 112.461 16.6289C112.604 15.9909 112.904 15.4375 113.359 14.9688C113.815 14.5 114.336 14.1354 114.922 13.875C115.443 13.6276 115.99 13.4323 116.562 13.2891C117.135 13.1458 117.708 13.1003 118.281 13.1523C118.503 13.1784 118.685 13.263 118.828 13.4062C118.984 13.5365 119.062 13.7122 119.062 13.9336C119.062 14.1289 118.984 14.3112 118.828 14.4805C118.685 14.6497 118.503 14.7279 118.281 14.7148C117.865 14.6758 117.454 14.6953 117.051 14.7734C116.647 14.8516 116.257 14.9753 115.879 15.1445C115.658 15.2487 115.436 15.3594 115.215 15.4766C115.007 15.5938 114.824 15.724 114.668 15.8672C114.499 16.0234 114.355 16.1797 114.238 16.3359C114.134 16.4922 114.056 16.6745 114.004 16.8828C113.952 17.0911 113.932 17.3125 113.945 17.5469C113.958 17.7812 113.997 18.0156 114.062 18.25C114.141 18.4714 114.245 18.6797 114.375 18.875C114.505 19.0573 114.661 19.2135 114.844 19.3438C115.221 19.6172 115.632 19.806 116.074 19.9102C116.53 20.0013 116.973 20.0078 117.402 19.9297C117.611 19.8906 117.806 19.9167 117.988 20.0078C118.171 20.099 118.294 20.2552 118.359 20.4766ZM120.176 21.8047C120.28 21.1797 120.397 20.5677 120.527 19.9688C120.671 19.3568 120.775 18.7383 120.84 18.1133C120.892 17.5013 120.898 16.9023 120.859 16.3164C120.833 15.7174 120.872 15.112 120.977 14.5C121.003 14.2917 121.12 14.1354 121.328 14.0312C121.549 13.9271 121.751 13.901 121.934 13.9531C122.155 14.0182 122.305 14.1419 122.383 14.3242C122.474 14.5065 122.507 14.7018 122.48 14.9102C122.428 15.2096 122.402 15.5156 122.402 15.8281C122.415 16.1406 122.428 16.4531 122.441 16.7656C122.441 17.3646 122.402 17.9635 122.324 18.5625C122.246 19.1875 122.142 19.7995 122.012 20.3984C121.895 20.9974 121.784 21.6029 121.68 22.2148C121.641 22.4232 121.517 22.5794 121.309 22.6836C121.1 22.7878 120.905 22.8138 120.723 22.7617C120.501 22.6966 120.345 22.5729 120.254 22.3906C120.163 22.2083 120.137 22.013 120.176 21.8047ZM121.113 12.8203C121.022 12.7943 120.931 12.7552 120.84 12.7031C120.749 12.638 120.684 12.5599 120.645 12.4688C120.605 12.3646 120.573 12.2734 120.547 12.1953C120.521 12.1172 120.508 12.026 120.508 11.9219C120.508 11.8047 120.527 11.6875 120.566 11.5703C120.618 11.3359 120.723 11.1667 120.879 11.0625C120.931 10.9844 121.003 10.9258 121.094 10.8867C121.237 10.7956 121.4 10.75 121.582 10.75C121.764 10.737 121.927 10.7826 122.07 10.8867C122.135 10.9388 122.201 10.9974 122.266 11.0625C122.331 11.1146 122.383 11.1862 122.422 11.2773C122.448 11.3424 122.474 11.4141 122.5 11.4922C122.539 11.5703 122.552 11.6484 122.539 11.7266C122.526 11.8177 122.513 11.9023 122.5 11.9805C122.487 12.0586 122.454 12.1302 122.402 12.1953C122.337 12.2865 122.285 12.3516 122.246 12.3906C122.207 12.4297 122.142 12.4818 122.051 12.5469C121.999 12.599 121.921 12.638 121.816 12.6641C121.543 12.8203 121.309 12.8724 121.113 12.8203ZM125.84 6.66797C126.074 6.66797 126.257 6.74609 126.387 6.90234C126.517 7.05859 126.595 7.24089 126.621 7.44922C126.751 8.6862 126.823 9.92318 126.836 11.1602C126.849 12.3971 126.829 13.6341 126.777 14.8711C126.738 16.1081 126.673 17.3451 126.582 18.582C126.491 19.819 126.4 21.0495 126.309 22.2734C126.283 22.4948 126.198 22.6771 126.055 22.8203C125.924 22.9766 125.749 23.0547 125.527 23.0547C125.332 23.0547 125.15 22.9766 124.98 22.8203C124.811 22.6771 124.733 22.4948 124.746 22.2734C124.837 21.0495 124.928 19.819 125.02 18.582C125.124 17.3451 125.195 16.1081 125.234 14.8711C125.286 13.6341 125.306 12.3971 125.293 11.1602C125.28 9.92318 125.208 8.6862 125.078 7.44922C125.052 7.24089 125.124 7.05859 125.293 6.90234C125.462 6.74609 125.645 6.66797 125.84 6.66797Z" fill="#292524"/>
</svg>
